<svg width="50" height="50" viewBox="0 0 50 50" fill="none" xmlns="http://www.w3.org/2000/svg">
<path fill-rule="evenodd" clip-rule="evenodd" d="M47.4838 2.10517C44.6768 -0.701712 40.1262 -0.701736 37.3192 2.10517L33.2947 6.12969L14.3532 25.071C14.0462 25.3782 13.8284 25.7629 13.7231 26.1841L11.3272 35.7675C11.1231 36.584 11.3623 37.4477 11.9574 38.0425C12.5525 38.6377 13.4162 38.877 14.2326 38.6729L23.8159 36.2771C24.2373 36.1716 24.6218 35.9539 24.929 35.6467L43.7327 16.8432L47.8949 12.6809C50.7019 9.874 50.7019 5.32311 47.8949 2.51623L47.4838 2.10517ZM40.7074 5.49338C41.643 4.55776 43.16 4.55776 44.0956 5.49338L44.5067 5.90444C45.4423 6.84008 45.4423 8.35705 44.5067 9.29267L42.0714 11.7281L38.3449 7.85596L40.7074 5.49338ZM34.956 11.2448L38.6825 15.1169L22.0101 31.7894L16.9443 33.0559L18.2107 27.9901L34.956 11.2448ZM6.46403 14.7861C6.46403 13.4629 7.53669 12.3902 8.85986 12.3902H20.839C22.1622 12.3902 23.2349 11.3176 23.2349 9.99439C23.2349 8.67122 22.1622 7.59855 20.839 7.59855H8.85986C4.89033 7.59855 1.67236 10.8165 1.67236 14.7861V41.1401C1.67236 45.1098 4.89033 48.3276 8.85986 48.3276H35.214C39.1837 48.3276 42.4015 45.1098 42.4015 41.1401V29.161C42.4015 27.838 41.3289 26.7651 40.0057 26.7651C38.6825 26.7651 37.6099 27.838 37.6099 29.161V41.1401C37.6099 42.4633 36.5372 43.536 35.214 43.536H8.85986C7.53669 43.536 6.46403 42.4633 6.46403 41.1401V14.7861Z" fill="#3A1800"/>
</svg>
