<svg width="60" height="60" viewBox="0 0 60 60" fill="none" xmlns="http://www.w3.org/2000/svg">
<path d="M36.6455 23.2166C40.245 25.4661 42.0445 26.5909 42.6617 28.0311C43.2007 29.2886 43.2007 30.7124 42.6617 31.9701C42.0445 33.4101 40.245 34.5349 36.6455 36.7846L19.74 47.3506C15.7451 49.8474 13.7477 51.0959 12.0993 50.9631C10.6625 50.8476 9.34545 50.1179 8.486 48.9606C7.5 47.6331 7.5 45.2776 7.5 40.5666V19.4345C7.5 14.7236 7.5 12.3681 8.486 11.0406C9.34545 9.88337 10.6625 9.1534 12.0993 9.03787C13.7477 8.90537 15.7451 10.1538 19.74 12.6506L36.6455 23.2166Z" stroke="#FA8723" stroke-width="5" stroke-linejoin="round"/>
</svg>
