<svg width="60" height="60" viewBox="0 0 60 60" fill="none" xmlns="http://www.w3.org/2000/svg">
<path d="M30 55C43.8071 55 55 43.8071 55 30C55 16.1929 43.8071 5 30 5C16.1929 5 5 16.1929 5 30C5 43.8071 16.1929 55 30 55Z" stroke="#FFC03A" stroke-width="5"/>
<path d="M27.1532 23.4084C28.4197 21.1361 29.0532 20 30 20C30.9467 20 31.5802 21.1361 32.8467 23.4084L33.1745 23.9962C33.5345 24.6419 33.7145 24.9648 33.995 25.1778C34.2757 25.3908 34.6252 25.47 35.324 25.628L35.9605 25.772C38.4202 26.3285 39.65 26.6067 39.9425 27.5477C40.2352 28.4887 39.3967 29.469 37.72 31.43L37.286 31.9372C36.8095 32.4945 36.5712 32.773 36.4642 33.1177C36.357 33.4625 36.393 33.834 36.465 34.5775L36.5305 35.2545C36.784 37.8705 36.911 39.1787 36.1447 39.7602C35.3787 40.3417 34.2272 39.8115 31.9242 38.7512L31.3285 38.4767C30.674 38.1755 30.3467 38.0247 30 38.0247C29.6532 38.0247 29.326 38.1755 28.6715 38.4767L28.0757 38.7512C25.7727 39.8115 24.6212 40.3417 23.8551 39.7602C23.0891 39.1787 23.2159 37.8705 23.4694 35.2545L23.535 34.5775C23.607 33.834 23.643 33.4625 23.5359 33.1177C23.4287 32.773 23.1904 32.4945 22.7139 31.9372L22.2801 31.43C20.6032 29.469 19.7648 28.4887 20.0574 27.5477C20.35 26.6067 21.5798 26.3285 24.0395 25.772L24.6759 25.628C25.3747 25.47 25.7242 25.3908 26.005 25.1778C26.2855 24.9648 26.4655 24.6419 26.8255 23.9962L27.1532 23.4084Z" stroke="#FFC03A" stroke-width="5"/>
</svg>
